<?xml version="1.0" encoding="utf-8"?>
<!-- Generator: Adobe Illustrator 19.0.0, SVG Export Plug-In . SVG Version: 6.00 Build 0)  -->
<svg version="1.1" id="Layer_1" xmlns="http://www.w3.org/2000/svg" xmlns:xlink="http://www.w3.org/1999/xlink" x="0px" y="0px"
	 viewBox="0 0 82 82" style="enable-background:new 0 0 82 82;" xml:space="preserve">
<style type="text/css">
	.st0{stroke:#000000;stroke-miterlimit:10;}
	.st1{fill:none;stroke:#000000;stroke-width:10;stroke-miterlimit:10;}
	.st2{fill:none;stroke:#000000;stroke-width:6;stroke-miterlimit:10;}
	.st3{fill:#FFFFFF;}
	.st4{fill:none;}
</style>
<rect id="XMLID_168_" x="911" y="1009" width="500" height="500"/>
<path id="XMLID_1_" d="M448.2,1029"/>
<path id="XMLID_8_" d="M551.1,1035c5.5,0,9.9-4.5,9.9-10c0-2.6-1-5-2.6-6.7c-0.2-0.2-0.5-0.5-0.7-0.7c-1.8-1.6-4.1-2.6-6.7-2.6H541
	v17.3v0.9l-17.2-17.2h2.2v-1h-3h-1v0.9v3.1h1v-2.4l17.8,17.8l-17.8,17.8v-2.2h-1v2.9v1.1h1h3v-1h-2.2l17.2-17.4v18.4h1v-18.4
	l18.1,18.1l0.7-0.7l-18.1-18.1H551.1z M542,1033.2v-0.9V1016h9.1c2.3,0,4.4,0.8,6,2.3c0.2,0.2,0.5,0.4,0.7,0.7
	c1.4,1.6,2.3,3.7,2.3,6c0,5-4,9-8.9,9h-8.3H542V1033.2z"/>
<g id="XMLID_38_">
	<path id="XMLID_12_" d="M533,1250c35.6,0,64.5-28.5,64.5-64.8c0-16.9-6.3-32-16.6-43.5c-1.4-1.6-3-3.3-4.6-4.7
		c-11.5-10.5-26.6-17-43.3-17h-65v113.2v6.1l-117.9-117.7l-4.7,4.6l120.9,121l-121,121l4.7,4.6L468,1255v119h6v-119l117.8,117.7
		l4.7-4.8L478.8,1250H533z M474,1233.2V1127h59c14.9,0,28.4,5.6,38.7,14.9c1.6,1.5,3.1,2.9,4.6,4.6c9.1,10.3,14.7,23.9,14.7,39
		c0,32.7-26,58.6-58,58.6h-54.2H474v-4.7V1233.2z"/>
	<line id="XMLID_4_" class="st0" x1="336" y1="1139.3" x2="364.2" y2="1111.1"/>
	<line id="XMLID_2_" class="st0" x1="583.1" y1="1386.4" x2="611.3" y2="1358.2"/>
	<line id="XMLID_6_" class="st0" x1="357.7" y1="1386.4" x2="329.5" y2="1358.2"/>
	<line id="XMLID_9_" class="st0" x1="448" y1="1377.5" x2="487" y2="1377.5"/>
</g>
<g id="XMLID_75_">
	<line id="XMLID_83_" class="st1" x1="1566" y1="1122" x2="1566" y2="1402"/>
	<g id="XMLID_80_">
		<line id="XMLID_82_" class="st2" x1="1426" y1="1244" x2="1426" y2="1280"/>
		<line id="XMLID_81_" class="st2" x1="1706" y1="1244" x2="1706" y2="1280"/>
	</g>
	<line id="XMLID_79_" class="st1" x1="1426" y1="1262" x2="1706" y2="1262"/>
	<g id="XMLID_76_">
		<line id="XMLID_78_" class="st2" x1="1548" y1="1402" x2="1584" y2="1402"/>
		<line id="XMLID_77_" class="st2" x1="1548" y1="1122" x2="1584" y2="1122"/>
	</g>
</g>
<g id="XMLID_84_">
	<line id="XMLID_92_" class="st1" x1="1856" y1="1126" x2="1856" y2="1406"/>
	<g id="XMLID_89_">
		<line id="XMLID_91_" class="st2" x1="1716" y1="1248" x2="1716" y2="1284"/>
		<line id="XMLID_90_" class="st2" x1="1996" y1="1248" x2="1996" y2="1284"/>
	</g>
	<line id="XMLID_88_" class="st1" x1="1716" y1="1266" x2="1996" y2="1266"/>
	<g id="XMLID_85_">
		<line id="XMLID_87_" class="st2" x1="1838" y1="1406" x2="1874" y2="1406"/>
		<line id="XMLID_86_" class="st2" x1="1838" y1="1126" x2="1874" y2="1126"/>
	</g>
</g>
<g id="XMLID_109_">
	<polygon id="XMLID_123_" class="st3" points="1156,1246.9 1042.5,1133.5 1035.4,1140.6 1153.8,1259 1156,1256.9 	"/>
	<polygon id="XMLID_125_" class="st3" points="1033.2,1379.5 1035.3,1377.4 1022.9,1365 1018.6,1369.2 1050.5,1401.1 1054.8,1396.9 
		1042.4,1384.5 1040.2,1386.6 	"/>
	<polygon id="XMLID_127_" class="st3" points="1156,1261.1 1153.8,1259 1035.4,1377.4 1042.5,1384.5 1156,1271.1 1156,1267 	"/>
	<polygon id="XMLID_129_" class="st3" points="1165.8,1256.9 1165.8,1257 1165.8,1257 	"/>
	<polygon id="XMLID_130_" class="st3" points="1156,1256.9 1153.9,1259 1156,1261.1 	"/>
	
		<rect id="XMLID_131_" x="1032.8" y="1380.5" transform="matrix(-0.7071 -0.7071 0.7071 -0.7071 794.3733 3093.0208)" class="st3" width="10" height="3"/>
	<polygon id="XMLID_66_" class="st3" points="1298.6,1365 1286.2,1377.4 1175.8,1267 1166,1267 1166,1271.1 1279.3,1384.5 
		1266.8,1396.9 1271,1401.1 1302.9,1369.2 	"/>
	<polygon id="XMLID_135_" class="st3" points="1040.2,1131.4 1042.4,1133.5 1054.8,1121.1 1050.5,1116.9 1018.6,1148.8 1022.9,1153 
		1035.3,1140.6 1033.2,1138.5 	"/>
	
		<rect id="XMLID_136_" x="1032.8" y="1134.5" transform="matrix(0.7071 -0.7071 0.7071 0.7071 -499.3238 1066.5453)" class="st3" width="10" height="3"/>
	<polygon id="XMLID_137_" class="st3" points="1159.8,1267 1156,1271.1 1156,1396 1166,1396 1166,1271.1 1161.7,1267 	"/>
	<polygon id="XMLID_138_" class="st3" points="1161.7,1267 1166,1271.1 1166,1267 	"/>
	<polygon id="XMLID_139_" class="st3" points="1156,1267 1156,1271.1 1159.8,1267 	"/>
	<path id="XMLID_140_" class="st3" d="M1166,1124h63.3c16.5,0,31.7,6.1,43.3,16.1l6.6-6.6l-4.7-4.7c-12.7-9.3-28.3-14.8-45.2-14.8
		H1156v5h10V1124z"/>
	<path id="XMLID_141_" class="st3" d="M1279.7,1147.2c10,11.6,16.1,26.8,16.1,43.3c0,36.7-29.8,66.5-66.5,66.5h-59.4l-2,2l8,8h53.4
		c42.2,0,76.5-34.3,76.5-76.5c0-16.9-5.5-32.5-14.8-45.2l-4.7-4.7L1279.7,1147.2z"/>
	<polygon id="XMLID_142_" class="st3" points="1166,1261.1 1166,1267 1175.8,1267 1168,1259 	"/>
	<path id="XMLID_143_" class="st3" d="M1279.7,1133c-1.7-1.5-3.4-2.9-5.2-4.2l4.7,4.7L1279.7,1133z"/>
	<path id="XMLID_144_" class="st3" d="M1286.2,1140.6l4.7,4.7c-1.3-1.8-2.7-3.6-4.2-5.2L1286.2,1140.6z"/>
	<polygon id="XMLID_145_" class="st3" points="1167.8,1259 1169.8,1257 1165.8,1257 	"/>
	<path id="XMLID_146_" class="st3" d="M1279.7,1147.2l6.6-6.6l-7.1-7.1l-6.6,6.6C1275.1,1142.3,1277.5,1144.7,1279.7,1147.2z"/>
	<polygon id="XMLID_147_" class="st3" points="1166,1257 1166,1261.1 1168,1259 1165.8,1257 	"/>
	<path id="XMLID_148_" class="st3" d="M1286.7,1140.1c-2.2-2.5-4.6-4.9-7.1-7.1l-0.5,0.5l7.1,7.1L1286.7,1140.1z"/>
	<polygon id="XMLID_149_" class="st3" points="1159.8,1267 1161.7,1267 1160.8,1266.1 	"/>
	<polygon id="XMLID_150_" class="st3" points="1166,1246.9 1166,1124 1166,1119 1156,1119 1156,1246.9 1161,1251.9 	"/>
	<polygon id="XMLID_151_" class="st3" points="1160.9,1266.1 1161.7,1267 1166,1267 1166,1261.1 	"/>
	<polygon id="XMLID_152_" class="st3" points="1161,1251.9 1156,1246.9 1156,1256.9 	"/>
	<polygon id="XMLID_153_" class="st3" points="1156,1261.1 1156,1267 1159.8,1267 1160.9,1266.1 	"/>
	<polygon id="XMLID_154_" class="st3" points="1166,1246.9 1161,1251.9 1166,1256.9 	"/>
	<polygon id="XMLID_155_" class="st3" points="1166,1261.1 1166,1257 1166,1256.9 1161,1251.9 1156,1256.9 1156,1261.1 1161,1266.1 
			"/>
	<polygon id="XMLID_156_" class="st3" points="1156,1399 1156,1396 1143,1396 1143,1402 1179,1402 1179,1396 1166,1396 1166,1399 	
		"/>
	<rect id="XMLID_157_" x="1156" y="1396" class="st3" width="10" height="3"/>
</g>
<g id="XMLID_207_">
	<path id="XMLID_210_" class="st3" d="M71.2,25.8c0-3.4-1.1-6.3-3-8.9c-0.3-0.4-0.6-0.7-0.9-1c-0.4-0.5-0.9-1-1.4-1.4
		c-0.3-0.3-0.7-0.4-1.1-0.7c-2.6-1.9-5.7-2.8-9.2-2.8H41v0.6v26l-23.1-23l2.5-2.5l-0.9-0.9L13,17.6l0.9,0.9l2.5-2.5l0,0l24.1,24h0
		l-24,24l-2.5-2.5l-0.9,0.8l6.5,6.5l0.9-0.9l-2.4-2.5l23.1-23V69h2V42.5l22.9,23L63.3,68l0.9,0.8l6.5-6.5l-0.9-0.9l-2.5,2.3L44.8,41
		h10.8C64.3,41,71.2,34.4,71.2,25.8z M43.6,39H43v-1.4V12h12.7c3.4,0,6.4,1.4,8.8,3.4c0.5,0.4,1,1.1,1.4,1.6c2,2.4,3.3,5.4,3.3,8.7
		c0,7.4-6.1,13.2-13.5,13.2H43.6z"/>
	<polygon id="XMLID_216_" class="st3" points="39,69 39,70 45,70 45,69 43.2,69 40.7,69 	"/>
</g>
<g id="XMLID_96_">
	<g id="XMLID_100_">
		<line id="XMLID_108_" class="st1" x1="1556.9" y1="766.9" x2="1805.1" y2="1015.1"/>
		<g id="XMLID_105_">
			<line id="XMLID_107_" class="st2" x1="1541" y1="999.1" x2="1572.9" y2="1031"/>
			<line id="XMLID_106_" class="st2" x1="1789.1" y1="751" x2="1821" y2="782.9"/>
		</g>
		<line id="XMLID_104_" class="st1" x1="1556.9" y1="1015.1" x2="1805.1" y2="766.9"/>
		<g id="XMLID_101_">
			<line id="XMLID_103_" class="st2" x1="1789.1" y1="1031" x2="1821" y2="999.1"/>
			<line id="XMLID_102_" class="st2" x1="1541" y1="782.9" x2="1572.9" y2="751"/>
		</g>
	</g>
	<line id="XMLID_99_" class="st1" x1="1681" y1="751" x2="1681" y2="1031"/>
	<path id="XMLID_98_" class="st1" d="M1749.5,894H1681V751h68.5c39.5,0,71.5,32,71.5,71.5v0C1821,862,1789,894,1749.5,894z"/>
	<line id="XMLID_97_" class="st2" x1="1663" y1="1031" x2="1699" y2="1031"/>
</g>
<g id="XMLID_171_">
	<g id="XMLID_177_">
		<line id="XMLID_186_" class="st1" x1="1556.9" y1="442.9" x2="1837.1" y2="723.1"/>
		<line id="XMLID_182_" class="st1" x1="1556.9" y1="723.1" x2="1837.1" y2="442.9"/>
	</g>
	<line id="XMLID_176_" class="st1" x1="1697" y1="447" x2="1697" y2="723"/>
	<path id="XMLID_173_" class="st1" d="M1770.1,583.2H1697V438.9h73.1c37.6,0,68.1,30.5,68.1,68.1v8.1
		C1838.2,552.7,1807.7,583.2,1770.1,583.2z"/>
</g>
<g id="XMLID_111_">
	<g id="XMLID_115_">
		<line id="XMLID_124_" class="st1" x1="2092.9" y1="539.9" x2="2341.1" y2="788.1"/>
		<g id="XMLID_120_">
			<line id="XMLID_122_" class="st2" x1="2077" y1="772.1" x2="2108.9" y2="804"/>
			<line id="XMLID_121_" class="st2" x1="2325.1" y1="524" x2="2357" y2="555.9"/>
		</g>
		<line id="XMLID_119_" class="st1" x1="2092.9" y1="788.1" x2="2341.1" y2="539.9"/>
		<g id="XMLID_116_">
			<line id="XMLID_118_" class="st2" x1="2325.1" y1="804" x2="2357" y2="772.1"/>
			<line id="XMLID_117_" class="st2" x1="2077" y1="555.9" x2="2108.9" y2="524"/>
		</g>
	</g>
	<line id="XMLID_114_" class="st1" x1="2217" y1="524" x2="2217" y2="804"/>
	<path id="XMLID_113_" class="st1" d="M2285.5,667H2217V524h68.5c39.5,0,71.5,32,71.5,71.5v0C2357,635,2325,667,2285.5,667z"/>
	<line id="XMLID_112_" class="st2" x1="2199" y1="804" x2="2235" y2="804"/>
</g>
<polygon id="XMLID_179_" points="1121.1,657 1121,657 1121,657.1 1116,652.1 1111,647.1 997.6,533.7 1010,521.2 1005.8,517 
	973.9,548.9 978.1,553.1 990.5,540.7 1108.9,659.1 990.5,777.5 978.1,765.1 973.9,769.3 1005.8,801.2 1010,797 997.6,784.6 
	1111,671.2 1115.1,667.1 1116,666.2 1121,661.2 1123.1,659.1 "/>
<g id="XMLID_166_">
	<path id="XMLID_167_" class="st4" d="M1127.1,656h59.4c36.7,0,66.5-29.8,66.5-66.5c0-16.5-6.1-31.7-16.1-43.3
		c-2.2-2.5-4.5-4.9-7.1-7.1c-11.6-10-26.8-16.1-43.3-16.1H1123v122.9v10v0.1h0.1H1127.1z"/>
	<path id="XMLID_175_" d="M1238.5,777.4L1128.1,667l-1-1h6h53.4c42.2,0,76.5-34.3,76.5-76.5c0-16.9-5.5-32.5-14.8-45.2
		c-1.3-1.8-2.7-3.6-4.2-5.2c-2.2-2.5-4.6-4.9-7.1-7.1c-1.7-1.5-3.4-2.9-5.2-4.2c-12.7-9.3-28.3-14.8-45.2-14.8H1113v5v127.9v10v4.1
		v5.9h0.1l-0.1,0.1l0.9,0.9l4.1,4.1l113.4,113.4l-12.4,12.4l4.2,4.2l31.9-31.9l-4.2-4.2L1238.5,777.4z M1123,655.9v-10V523h63.5
		c16.5,0,31.7,6.1,43.3,16.1c2.5,2.2,4.9,4.5,7.1,7.1c10,11.6,16.1,26.8,16.1,43.3c0,36.7-29.8,66.5-66.5,66.5h-59.4L1123,655.9
		L1123,655.9L1123,655.9z"/>
</g>
<g id="XMLID_178_">
	<polygon id="XMLID_180_" points="2185,67.2 2185,199 2195,199 2195,67.2 2190,62.1 	"/>
	<path id="XMLID_188_" d="M2336-12.9V-21c0-17.6-6.1-33.8-16.5-46.4l0.1-0.1c-2.1-2.6-4.4-5-6.9-7.3l0,0c-13-12-30.4-19.3-49.5-19.3
		H2185v13V42.9L2053.5-88.6l-7.1,7.1L2182.9,55l-136.5,136.5l7.1,7.1L2185,67.1l5-5.1l-1.9-2l1.9,1.9l1.9-1.9l-1.9,2l5,5.1
		l131.5,131.5l7.1-7.2L2202.2,60l-5.2-5.1l0,0l-2-2l2.1,2l0,0l5.1,5.1h60.9C2303.4,60,2336,27.4,2336-12.9z M2201.9,50h-6.9v-7.1
		V-81v-3h68.1c16.3,0,31.2,6.2,42.4,16.4l0,0c2.4,2.2,4.7,4.6,6.7,7.2l-0.1,0.1c8.6,10.8,13.8,24.5,13.8,39.3v8.1
		c0,34.8-28.1,62.9-62.9,62.9H2201.9z"/>
</g>
</svg>
